<svg version="1.1" xmlns="http://www.w3.org/2000/svg" viewBox="0 0 1288.4444444444443 989.1111111111109" width="3865.333333333333" height="2967.3333333333326">
  <!-- svg-source:excalidraw -->
  
  <defs>
    <style class="style-fonts">
      @font-face {
        font-family: "Virgil";
        src: url("https://excalidraw.com/Virgil.woff2");
      }
      @font-face {
        font-family: "Cascadia";
        src: url("https://excalidraw.com/Cascadia.woff2");
      }
      @font-face {
        font-family: "Assistant";
        src: url("https://excalidraw.com/Assistant-Regular.woff2");
      }
    </style>
    
  </defs>
  <g stroke-linecap="round" transform="translate(556.8888888888887 482.44444444444406) rotate(0 360.77777777777777 248.33333333333337)"><path d="M0 0 C274.35 0, 548.7 0, 721.56 0 M0 0 C210.42 0, 420.84 0, 721.56 0 M721.56 0 C721.56 101.1, 721.56 202.21, 721.56 496.67 M721.56 0 C721.56 119.02, 721.56 238.04, 721.56 496.67 M721.56 496.67 C438.79 496.67, 156.03 496.67, 0 496.67 M721.56 496.67 C457.26 496.67, 192.95 496.67, 0 496.67 M0 496.67 C0 329.26, 0 161.86, 0 0 M0 496.67 C0 335.66, 0 174.64, 0 0" stroke="#e03131" stroke-width="4" fill="none"></path></g><g stroke-linecap="round" transform="translate(587.5555555555555 714.6666666666663) rotate(0 289.1111111111112 117.22222222222226)"><path d="M0 0 C131.08 0, 262.16 0, 578.22 0 M0 0 C129.58 0, 259.17 0, 578.22 0 M578.22 0 C578.22 77.58, 578.22 155.15, 578.22 234.44 M578.22 0 C578.22 49.95, 578.22 99.89, 578.22 234.44 M578.22 234.44 C460.86 234.44, 343.5 234.44, 0 234.44 M578.22 234.44 C391.64 234.44, 205.06 234.44, 0 234.44 M0 234.44 C0 149.38, 0 64.31, 0 0 M0 234.44 C0 151.41, 0 68.38, 0 0" stroke="#e03131" stroke-width="4" fill="none"></path></g><g stroke-linecap="round" transform="translate(599.5555555555555 791.1111111111107) rotate(0 166.22222222222217 70)"><path d="M332.44 70 C332.44 71.93, 332.25 73.86, 331.88 75.78 C331.5 77.7, 330.93 79.62, 330.18 81.52 C329.42 83.42, 328.48 85.32, 327.36 87.18 C326.23 89.05, 324.92 90.91, 323.44 92.73 C321.95 94.55, 320.28 96.35, 318.44 98.12 C316.61 99.88, 314.59 101.62, 312.41 103.32 C310.23 105.01, 307.88 106.67, 305.38 108.29 C302.88 109.9, 300.21 111.47, 297.39 112.99 C294.58 114.52, 291.61 115.99, 288.52 117.41 C285.42 118.83, 282.17 120.2, 278.8 121.5 C275.44 122.81, 271.93 124.06, 268.32 125.24 C264.71 126.42, 260.97 127.55, 257.14 128.6 C253.31 129.66, 249.36 130.65, 245.34 131.56 C241.31 132.48, 237.18 133.33, 232.99 134.1 C228.8 134.88, 224.52 135.58, 220.19 136.21 C215.87 136.83, 211.46 137.39, 207.03 137.86 C202.59 138.33, 198.09 138.73, 193.58 139.05 C189.07 139.36, 184.51 139.6, 179.95 139.76 C175.39 139.92, 170.8 140, 166.22 140 C161.65 140, 157.06 139.92, 152.5 139.76 C147.94 139.6, 143.38 139.36, 138.86 139.05 C134.35 138.73, 129.85 138.33, 125.42 137.86 C120.98 137.39, 116.58 136.83, 112.25 136.21 C107.92 135.58, 103.64 134.88, 99.45 134.1 C95.26 133.33, 91.13 132.48, 87.11 131.56 C83.09 130.65, 79.14 129.66, 75.31 128.6 C71.48 127.55, 67.74 126.42, 64.13 125.24 C60.52 124.06, 57.01 122.81, 53.64 121.5 C50.28 120.2, 47.03 118.83, 43.93 117.41 C40.83 115.99, 37.86 114.52, 35.05 112.99 C32.24 111.47, 29.57 109.9, 27.07 108.29 C24.56 106.67, 22.21 105.01, 20.03 103.32 C17.86 101.62, 15.84 99.88, 14 98.12 C12.16 96.35, 10.49 94.55, 9.01 92.73 C7.52 90.91, 6.21 89.05, 5.09 87.18 C3.96 85.32, 3.02 83.42, 2.27 81.52 C1.51 79.62, 0.95 77.7, 0.57 75.78 C0.19 73.86, 0 71.93, 0 70 C0 68.07, 0.19 66.14, 0.57 64.22 C0.95 62.3, 1.51 60.38, 2.27 58.48 C3.02 56.58, 3.96 54.68, 5.09 52.82 C6.21 50.95, 7.52 49.09, 9.01 47.27 C10.49 45.45, 12.16 43.65, 14 41.88 C15.84 40.12, 17.86 38.38, 20.03 36.68 C22.21 34.99, 24.56 33.33, 27.07 31.71 C29.57 30.1, 32.24 28.53, 35.05 27.01 C37.86 25.48, 40.83 24.01, 43.93 22.59 C47.03 21.17, 50.28 19.8, 53.64 18.5 C57.01 17.19, 60.52 15.94, 64.13 14.76 C67.74 13.58, 71.48 12.45, 75.31 11.4 C79.14 10.34, 83.09 9.35, 87.11 8.44 C91.13 7.52, 95.26 6.67, 99.45 5.9 C103.64 5.12, 107.92 4.42, 112.25 3.79 C116.58 3.17, 120.98 2.61, 125.42 2.14 C129.85 1.67, 134.35 1.27, 138.86 0.95 C143.38 0.64, 147.94 0.4, 152.5 0.24 C157.06 0.08, 161.65 0, 166.22 0 C170.8 0, 175.39 0.08, 179.95 0.24 C184.51 0.4, 189.07 0.64, 193.58 0.95 C198.09 1.27, 202.59 1.67, 207.03 2.14 C211.46 2.61, 215.87 3.17, 220.19 3.79 C224.52 4.42, 228.8 5.12, 232.99 5.9 C237.18 6.67, 241.31 7.52, 245.34 8.44 C249.36 9.35, 253.31 10.34, 257.14 11.4 C260.97 12.45, 264.71 13.58, 268.32 14.76 C271.93 15.94, 275.44 17.19, 278.8 18.5 C282.17 19.8, 285.42 21.17, 288.52 22.59 C291.61 24.01, 294.58 25.48, 297.39 27.01 C300.21 28.53, 302.88 30.1, 305.38 31.71 C307.88 33.33, 310.23 34.99, 312.41 36.68 C314.59 38.38, 316.61 40.12, 318.44 41.88 C320.28 43.65, 321.95 45.45, 323.44 47.27 C324.92 49.09, 326.23 50.95, 327.36 52.82 C328.48 54.68, 329.42 56.58, 330.18 58.48 C330.93 60.38, 331.5 62.3, 331.88 64.22 C332.25 66.14, 332.44 68.07, 332.44 70" stroke="none" stroke-width="0" fill="#a5d8ff"></path><path d="M332.44 70 C332.44 71.93, 332.25 73.86, 331.88 75.78 C331.5 77.7, 330.93 79.62, 330.18 81.52 C329.42 83.42, 328.48 85.32, 327.36 87.18 C326.23 89.05, 324.92 90.91, 323.44 92.73 C321.95 94.55, 320.28 96.35, 318.44 98.12 C316.61 99.88, 314.59 101.62, 312.41 103.32 C310.23 105.01, 307.88 106.67, 305.38 108.29 C302.88 109.9, 300.21 111.47, 297.39 112.99 C294.58 114.52, 291.61 115.99, 288.52 117.41 C285.42 118.83, 282.17 120.2, 278.8 121.5 C275.44 122.81, 271.93 124.06, 268.32 125.24 C264.71 126.42, 260.97 127.55, 257.14 128.6 C253.31 129.66, 249.36 130.65, 245.34 131.56 C241.31 132.48, 237.18 133.33, 232.99 134.1 C228.8 134.88, 224.52 135.58, 220.19 136.21 C215.87 136.83, 211.46 137.39, 207.03 137.86 C202.59 138.33, 198.09 138.73, 193.58 139.05 C189.07 139.36, 184.51 139.6, 179.95 139.76 C175.39 139.92, 170.8 140, 166.22 140 C161.65 140, 157.06 139.92, 152.5 139.76 C147.94 139.6, 143.38 139.36, 138.86 139.05 C134.35 138.73, 129.85 138.33, 125.42 137.86 C120.98 137.39, 116.58 136.83, 112.25 136.21 C107.92 135.58, 103.64 134.88, 99.45 134.1 C95.26 133.33, 91.13 132.48, 87.11 131.56 C83.09 130.65, 79.14 129.66, 75.31 128.6 C71.48 127.55, 67.74 126.42, 64.13 125.24 C60.52 124.06, 57.01 122.81, 53.64 121.5 C50.28 120.2, 47.03 118.83, 43.93 117.41 C40.83 115.99, 37.86 114.52, 35.05 112.99 C32.24 111.47, 29.57 109.9, 27.07 108.29 C24.56 106.67, 22.21 105.01, 20.03 103.32 C17.86 101.62, 15.84 99.88, 14 98.12 C12.16 96.35, 10.49 94.55, 9.01 92.73 C7.52 90.91, 6.21 89.05, 5.09 87.18 C3.96 85.32, 3.02 83.42, 2.27 81.52 C1.51 79.62, 0.95 77.7, 0.57 75.78 C0.19 73.86, 0 71.93, 0 70 C0 68.07, 0.19 66.14, 0.57 64.22 C0.95 62.3, 1.51 60.38, 2.27 58.48 C3.02 56.58, 3.96 54.68, 5.09 52.82 C6.21 50.95, 7.52 49.09, 9.01 47.27 C10.49 45.45, 12.16 43.65, 14 41.88 C15.84 40.12, 17.86 38.38, 20.03 36.68 C22.21 34.99, 24.56 33.33, 27.07 31.71 C29.57 30.1, 32.24 28.53, 35.05 27.01 C37.86 25.48, 40.83 24.01, 43.93 22.59 C47.03 21.17, 50.28 19.8, 53.64 18.5 C57.01 17.19, 60.52 15.94, 64.13 14.76 C67.74 13.58, 71.48 12.45, 75.31 11.4 C79.14 10.34, 83.09 9.35, 87.11 8.44 C91.13 7.52, 95.26 6.67, 99.45 5.9 C103.64 5.12, 107.92 4.42, 112.25 3.79 C116.58 3.17, 120.98 2.61, 125.42 2.14 C129.85 1.67, 134.35 1.27, 138.86 0.95 C143.38 0.64, 147.94 0.4, 152.5 0.24 C157.06 0.08, 161.65 0, 166.22 0 C170.8 0, 175.39 0.08, 179.95 0.24 C184.51 0.4, 189.07 0.64, 193.58 0.95 C198.09 1.27, 202.59 1.67, 207.03 2.14 C211.46 2.61, 215.87 3.17, 220.19 3.79 C224.52 4.42, 228.8 5.12, 232.99 5.9 C237.18 6.67, 241.31 7.52, 245.34 8.44 C249.36 9.35, 253.31 10.34, 257.14 11.4 C260.97 12.45, 264.71 13.58, 268.32 14.76 C271.93 15.94, 275.44 17.19, 278.8 18.5 C282.17 19.8, 285.42 21.17, 288.52 22.59 C291.61 24.01, 294.58 25.48, 297.39 27.01 C300.21 28.53, 302.88 30.1, 305.38 31.71 C307.88 33.33, 310.23 34.99, 312.41 36.68 C314.59 38.38, 316.61 40.12, 318.44 41.88 C320.28 43.65, 321.95 45.45, 323.44 47.27 C324.92 49.09, 326.23 50.95, 327.36 52.82 C328.48 54.68, 329.42 56.58, 330.18 58.48 C330.93 60.38, 331.5 62.3, 331.88 64.22 C332.25 66.14, 332.44 68.07, 332.44 70" stroke="#1e1e1e" stroke-width="4" fill="none"></path></g><g transform="translate(642 838.8888888888886) rotate(0 126.56249999999994 21.599999999999994)"><text x="0" y="34.762499999999996" font-family="Cascadia, Segoe UI Emoji" font-size="36px" fill="#1e1e1e" text-anchor="start" style="white-space: pre;" direction="ltr" dominant-baseline="alphabetic">rating_{i,k}</text></g><g transform="translate(794.2222222222223 720.222222222222) rotate(0 158.203125 21.599999999999994)"><text x="0" y="34.762499999999996" font-family="Cascadia, Segoe UI Emoji" font-size="36px" fill="#e03131" text-anchor="start" style="white-space: pre;" direction="ltr" dominant-baseline="alphabetic">for i=1,...,n_k</text></g><g stroke-linecap="round" transform="translate(648.6666666666665 505.3333333333329) rotate(0 123.33333333333331 84.44444444444444)"><path d="M246.67 84.44 C246.67 87.04, 246.49 89.65, 246.14 92.24 C245.79 94.82, 245.26 97.41, 244.57 99.96 C243.87 102.51, 243 105.06, 241.96 107.55 C240.92 110.05, 239.71 112.53, 238.34 114.95 C236.97 117.37, 235.43 119.76, 233.74 122.08 C232.05 124.41, 230.19 126.69, 228.19 128.9 C226.2 131.11, 224.04 133.26, 221.76 135.33 C219.47 137.41, 217.03 139.41, 214.48 141.33 C211.92 143.25, 209.23 145.1, 206.42 146.85 C203.62 148.6, 200.69 150.27, 197.66 151.83 C194.63 153.4, 191.49 154.87, 188.26 156.24 C185.03 157.61, 181.7 158.88, 178.31 160.04 C174.91 161.19, 171.42 162.25, 167.89 163.19 C164.35 164.12, 160.73 164.95, 157.09 165.67 C153.44 166.38, 149.72 166.97, 146 167.45 C142.27 167.93, 138.49 168.29, 134.71 168.53 C130.94 168.77, 127.13 168.89, 123.33 168.89 C119.54 168.89, 115.73 168.77, 111.95 168.53 C108.18 168.29, 104.4 167.93, 100.67 167.45 C96.94 166.97, 93.23 166.38, 89.58 165.67 C85.93 164.95, 82.32 164.12, 78.78 163.19 C75.24 162.25, 71.75 161.19, 68.36 160.04 C64.96 158.88, 61.63 157.61, 58.41 156.24 C55.18 154.87, 52.04 153.4, 49.01 151.83 C45.98 150.27, 43.05 148.6, 40.24 146.85 C37.44 145.1, 34.74 143.25, 32.19 141.33 C29.63 139.41, 27.2 137.41, 24.91 135.33 C22.63 133.26, 20.47 131.11, 18.47 128.9 C16.48 126.69, 14.62 124.41, 12.93 122.08 C11.24 119.76, 9.7 117.37, 8.33 114.95 C6.96 112.53, 5.75 110.05, 4.71 107.55 C3.67 105.06, 2.8 102.51, 2.1 99.96 C1.4 97.41, 0.88 94.82, 0.53 92.24 C0.18 89.65, 0 87.04, 0 84.44 C0 81.85, 0.18 79.24, 0.53 76.65 C0.88 74.07, 1.4 71.48, 2.1 68.93 C2.8 66.37, 3.67 63.83, 4.71 61.34 C5.75 58.84, 6.96 56.36, 8.33 53.94 C9.7 51.52, 11.24 49.13, 12.93 46.8 C14.62 44.48, 16.48 42.2, 18.47 39.99 C20.47 37.78, 22.63 35.63, 24.91 33.56 C27.2 31.48, 29.63 29.47, 32.19 27.55 C34.74 25.64, 37.44 23.79, 40.24 22.04 C43.05 20.29, 45.98 18.62, 49.01 17.06 C52.04 15.49, 55.18 14.02, 58.41 12.65 C61.63 11.28, 64.96 10.01, 68.36 8.85 C71.75 7.7, 75.24 6.64, 78.78 5.7 C82.32 4.76, 85.93 3.93, 89.58 3.22 C93.23 2.51, 96.94 1.92, 100.67 1.44 C104.4 0.96, 108.18 0.6, 111.95 0.36 C115.73 0.12, 119.54 0, 123.33 0 C127.13 0, 130.94 0.12, 134.71 0.36 C138.49 0.6, 142.27 0.96, 146 1.44 C149.72 1.92, 153.44 2.51, 157.09 3.22 C160.73 3.93, 164.35 4.76, 167.89 5.7 C171.42 6.64, 174.91 7.7, 178.31 8.85 C181.7 10.01, 185.03 11.28, 188.26 12.65 C191.49 14.02, 194.63 15.49, 197.66 17.06 C200.69 18.62, 203.62 20.29, 206.42 22.04 C209.23 23.79, 211.92 25.64, 214.48 27.55 C217.03 29.47, 219.47 31.48, 221.76 33.56 C224.04 35.63, 226.2 37.78, 228.19 39.99 C230.19 42.2, 232.05 44.48, 233.74 46.8 C235.43 49.13, 236.97 51.52, 238.34 53.94 C239.71 56.36, 240.92 58.84, 241.96 61.34 C243 63.83, 243.87 66.37, 244.57 68.93 C245.26 71.48, 245.79 74.07, 246.14 76.65 C246.49 79.24, 246.58 83.15, 246.67 84.44 C246.75 85.74, 246.75 83.15, 246.67 84.44" stroke="#1e1e1e" stroke-width="4" fill="none"></path></g><g transform="translate(697.962038653659 567.96653847758) rotate(0 73.828125 21.599999999999998)"><text x="73.828125" y="34.762499999999996" font-family="Cascadia, Segoe UI Emoji" font-size="36px" fill="#1e1e1e" text-anchor="middle" style="white-space: pre;" direction="ltr" dominant-baseline="alphabetic">theta_k</text></g><g transform="translate(920.888888888889 514.6666666666663) rotate(0 137.109375 21.599999999999998)"><text x="0" y="34.762499999999996" font-family="Cascadia, Segoe UI Emoji" font-size="36px" fill="#e03131" text-anchor="start" style="white-space: pre;" direction="ltr" dominant-baseline="alphabetic">for k=1,...,K</text></g><g stroke-linecap="round"><g transform="translate(774.6367357020727 680.4376749372609) rotate(0 -2.6831928973621757 53.046001296473236)"><path d="M0 0 C-1.09 21.6, -2.18 43.19, -5.37 106.09 M0 0 C-1.29 25.42, -2.57 50.85, -5.37 106.09" stroke="#1e1e1e" stroke-width="4" fill="none"></path></g><g transform="translate(774.6367357020727 680.4376749372609) rotate(0 -2.6831928973621757 53.046001296473236)"><path d="M-12.72 82.2 C-11.22 87.06, -9.73 91.93, -5.37 106.09 M-12.72 82.2 C-10.96 87.92, -9.2 93.65, -5.37 106.09" stroke="#1e1e1e" stroke-width="4" fill="none"></path></g><g transform="translate(774.6367357020727 680.4376749372609) rotate(0 -2.6831928973621757 53.046001296473236)"><path d="M4.36 83.06 C2.38 87.75, 0.4 92.44, -5.37 106.09 M4.36 83.06 C2.03 88.58, -0.3 94.1, -5.37 106.09" stroke="#1e1e1e" stroke-width="4" fill="none"></path></g></g><mask></mask><g stroke-linecap="round" transform="translate(642 213.5555555555555) rotate(0 77.22222222222223 73.33333333333334)"><path d="M154.44 73.33 C154.44 76.07, 154.28 78.82, 153.96 81.54 C153.64 84.26, 153.15 86.98, 152.51 89.65 C151.87 92.32, 151.06 94.97, 150.11 97.55 C149.16 100.14, 148.05 102.69, 146.8 105.15 C145.55 107.62, 144.14 110.03, 142.61 112.35 C141.07 114.67, 139.39 116.92, 137.6 119.06 C135.8 121.2, 133.86 123.25, 131.83 125.19 C129.79 127.12, 127.62 128.96, 125.37 130.67 C123.12 132.37, 120.75 133.97, 118.31 135.43 C115.87 136.88, 113.32 138.22, 110.73 139.4 C108.13 140.59, 105.45 141.65, 102.73 142.55 C100.01 143.46, 97.22 144.22, 94.41 144.83 C91.6 145.44, 88.73 145.9, 85.87 146.21 C83 146.51, 80.1 146.67, 77.22 146.67 C74.34 146.67, 71.44 146.51, 68.58 146.21 C65.71 145.9, 62.85 145.44, 60.04 144.83 C57.23 144.22, 54.44 143.46, 51.72 142.55 C49 141.65, 46.31 140.59, 43.72 139.4 C41.12 138.22, 38.58 136.88, 36.14 135.43 C33.7 133.97, 31.33 132.37, 29.07 130.67 C26.82 128.96, 24.66 127.12, 22.62 125.19 C20.58 123.25, 18.64 121.2, 16.85 119.06 C15.05 116.92, 13.37 114.67, 11.84 112.35 C10.3 110.03, 8.9 107.62, 7.65 105.15 C6.4 102.69, 5.29 100.14, 4.33 97.55 C3.38 94.97, 2.58 92.32, 1.94 89.65 C1.29 86.98, 0.81 84.26, 0.49 81.54 C0.16 78.82, 0 76.07, 0 73.33 C0 70.6, 0.16 67.84, 0.49 65.12 C0.81 62.4, 1.29 59.68, 1.94 57.02 C2.58 54.35, 3.38 51.7, 4.33 49.11 C5.29 46.53, 6.4 43.98, 7.65 41.52 C8.9 39.05, 10.3 36.64, 11.84 34.32 C13.37 32, 15.05 29.75, 16.85 27.61 C18.64 25.47, 20.58 23.41, 22.62 21.48 C24.66 19.54, 26.82 17.71, 29.07 16 C31.33 14.29, 33.7 12.7, 36.14 11.24 C38.58 9.78, 41.12 8.45, 43.72 7.26 C46.31 6.07, 49 5.02, 51.72 4.12 C54.44 3.21, 57.23 2.45, 60.04 1.84 C62.85 1.23, 65.71 0.77, 68.58 0.46 C71.44 0.15, 74.34 0, 77.22 0 C80.1 0, 83 0.15, 85.87 0.46 C88.73 0.77, 91.6 1.23, 94.41 1.84 C97.22 2.45, 100.01 3.21, 102.73 4.12 C105.45 5.02, 108.13 6.07, 110.73 7.26 C113.32 8.45, 115.87 9.78, 118.31 11.24 C120.75 12.7, 123.12 14.29, 125.37 16 C127.62 17.71, 129.79 19.54, 131.83 21.48 C133.86 23.41, 135.8 25.47, 137.6 27.61 C139.39 29.75, 141.07 32, 142.61 34.32 C144.14 36.64, 145.55 39.05, 146.8 41.52 C148.05 43.98, 149.16 46.53, 150.11 49.11 C151.06 51.7, 151.87 54.35, 152.51 57.02 C153.15 59.68, 153.64 62.4, 153.96 65.12 C154.28 67.84, 154.36 71.96, 154.44 73.33 C154.53 74.7, 154.53 71.96, 154.44 73.33" stroke="#1e1e1e" stroke-width="4" fill="none"></path></g><g transform="translate(698.0241152305944 265.4343916018753) rotate(0 21.09375 21.599999999999994)"><text x="21.09375" y="34.762499999999996" font-family="Cascadia, Segoe UI Emoji" font-size="36px" fill="#1e1e1e" text-anchor="middle" style="white-space: pre;" direction="ltr" dominant-baseline="alphabetic">mu</text></g><g stroke-linecap="round" transform="translate(840.0000000000001 272.88888888888874) rotate(0 81.11111111111109 82.22222222222223)"><path d="M162.22 82.22 C162.22 85.09, 162.07 87.97, 161.78 90.82 C161.48 93.67, 161.04 96.51, 160.45 99.32 C159.86 102.12, 159.13 104.91, 158.25 107.63 C157.38 110.35, 156.36 113.05, 155.21 115.67 C154.06 118.28, 152.77 120.85, 151.36 123.33 C149.94 125.81, 148.39 128.23, 146.73 130.55 C145.07 132.87, 143.28 135.11, 141.39 137.24 C139.5 139.37, 137.49 141.41, 135.39 143.33 C133.28 145.24, 131.07 147.06, 128.79 148.74 C126.5 150.43, 124.11 152, 121.67 153.43 C119.22 154.86, 116.68 156.17, 114.1 157.34 C111.52 158.5, 108.86 159.53, 106.18 160.42 C103.49 161.31, 100.74 162.05, 97.98 162.65 C95.21 163.24, 92.4 163.69, 89.59 163.99 C86.78 164.29, 83.94 164.44, 81.11 164.44 C78.28 164.44, 75.44 164.29, 72.63 163.99 C69.82 163.69, 67.01 163.24, 64.25 162.65 C61.48 162.05, 58.73 161.31, 56.05 160.42 C53.36 159.53, 50.7 158.5, 48.12 157.34 C45.54 156.17, 43 154.86, 40.56 153.43 C38.11 152, 35.72 150.43, 33.44 148.74 C31.15 147.06, 28.94 145.24, 26.84 143.33 C24.74 141.41, 22.72 139.37, 20.83 137.24 C18.94 135.11, 17.15 132.87, 15.49 130.55 C13.83 128.23, 12.28 125.81, 10.87 123.33 C9.45 120.85, 8.16 118.28, 7.01 115.67 C5.86 113.05, 4.84 110.35, 3.97 107.63 C3.1 104.91, 2.36 102.12, 1.77 99.32 C1.18 96.51, 0.74 93.67, 0.44 90.82 C0.15 87.97, 0 85.09, 0 82.22 C0 79.36, 0.15 76.48, 0.44 73.63 C0.74 70.78, 1.18 67.93, 1.77 65.13 C2.36 62.33, 3.1 59.54, 3.97 56.81 C4.84 54.09, 5.86 51.4, 7.01 48.78 C8.16 46.16, 9.45 43.59, 10.87 41.11 C12.28 38.63, 13.83 36.21, 15.49 33.89 C17.15 31.58, 18.94 29.33, 20.83 27.2 C22.72 25.08, 24.74 23.04, 26.84 21.12 C28.94 19.2, 31.15 17.39, 33.44 15.7 C35.72 14.02, 38.11 12.45, 40.56 11.02 C43 9.58, 45.54 8.27, 48.12 7.11 C50.7 5.94, 53.36 4.91, 56.05 4.02 C58.73 3.14, 61.48 2.39, 64.25 1.8 C67.01 1.2, 69.82 0.75, 72.63 0.45 C75.44 0.15, 78.28 0, 81.11 0 C83.94 0, 86.78 0.15, 89.59 0.45 C92.4 0.75, 95.21 1.2, 97.98 1.8 C100.74 2.39, 103.49 3.14, 106.18 4.02 C108.86 4.91, 111.52 5.94, 114.1 7.11 C116.68 8.27, 119.22 9.58, 121.67 11.02 C124.11 12.45, 126.5 14.02, 128.79 15.7 C131.07 17.39, 133.28 19.2, 135.39 21.12 C137.49 23.04, 139.5 25.08, 141.39 27.2 C143.28 29.33, 145.07 31.58, 146.73 33.89 C148.39 36.21, 149.94 38.63, 151.36 41.11 C152.77 43.59, 154.06 46.16, 155.21 48.78 C156.36 51.4, 157.38 54.09, 158.25 56.81 C159.13 59.54, 159.86 62.33, 160.45 65.13 C161.04 67.93, 161.48 70.78, 161.78 73.63 C162.07 76.48, 162.15 80.79, 162.22 82.22 C162.3 83.65, 162.3 80.79, 162.22 82.22" stroke="#1e1e1e" stroke-width="4" fill="none"></path></g><g transform="translate(873.7777777777777 338.4444444444443) rotate(0 52.734375 21.599999999999994)"><text x="0" y="34.762499999999996" font-family="Cascadia, Segoe UI Emoji" font-size="36px" fill="#1e1e1e" text-anchor="start" style="white-space: pre;" direction="ltr" dominant-baseline="alphabetic">tau_b</text></g><g stroke-linecap="round"><g transform="translate(729.9438326340486 364.0388038677667) rotate(0 10.701060245167241 70.49131211045281)"><path d="M0 0 C7.64 50.33, 15.28 100.66, 21.4 140.98 M0 0 C6.01 39.62, 12.03 79.24, 21.4 140.98" stroke="#1e1e1e" stroke-width="4" fill="none"></path></g><g transform="translate(729.9438326340486 364.0388038677667) rotate(0 10.701060245167241 70.49131211045281)"><path d="M9.42 119.04 C13.7 126.87, 17.98 134.71, 21.4 140.98 M9.42 119.04 C12.79 125.21, 16.16 131.37, 21.4 140.98" stroke="#1e1e1e" stroke-width="4" fill="none"></path></g><g transform="translate(729.9438326340486 364.0388038677667) rotate(0 10.701060245167241 70.49131211045281)"><path d="M26.33 116.47 C24.57 125.22, 22.81 133.97, 21.4 140.98 M26.33 116.47 C24.94 123.36, 23.56 130.25, 21.4 140.98" stroke="#1e1e1e" stroke-width="4" fill="none"></path></g></g><mask></mask><g stroke-linecap="round"><g transform="translate(887.5653924420225 433.7723934367649) rotate(0 -31.220068236746386 37.59961815434886)"><path d="M0 0 C-17.75 21.37, -35.49 42.74, -62.44 75.2 M0 0 C-18.84 22.69, -37.68 45.38, -62.44 75.2" stroke="#1e1e1e" stroke-width="4" fill="none"></path></g><g transform="translate(887.5653924420225 433.7723934367649) rotate(0 -31.220068236746386 37.59961815434886)"><path d="M-54.01 51.66 C-56.41 58.35, -58.8 65.04, -62.44 75.2 M-54.01 51.66 C-56.55 58.76, -59.1 65.86, -62.44 75.2" stroke="#1e1e1e" stroke-width="4" fill="none"></path></g><g transform="translate(887.5653924420225 433.7723934367649) rotate(0 -31.220068236746386 37.59961815434886)"><path d="M-40.85 62.59 C-46.99 66.17, -53.12 69.76, -62.44 75.2 M-40.85 62.59 C-47.37 66.39, -53.88 70.2, -62.44 75.2" stroke="#1e1e1e" stroke-width="4" fill="none"></path></g></g><mask></mask><g stroke-linecap="round" transform="translate(310 646) rotate(0 100 84)"><path d="M200 84 C200 86.74, 199.84 89.5, 199.52 92.23 C199.2 94.96, 198.72 97.7, 198.08 100.39 C197.44 103.08, 196.64 105.76, 195.69 108.38 C194.75 111.01, 193.64 113.61, 192.39 116.15 C191.14 118.68, 189.73 121.18, 188.19 123.6 C186.65 126.02, 184.96 128.39, 183.15 130.67 C181.33 132.95, 179.37 135.17, 177.3 137.29 C175.23 139.41, 173.02 141.46, 170.71 143.4 C168.4 145.34, 165.96 147.19, 163.44 148.93 C160.91 150.67, 158.27 152.32, 155.56 153.84 C152.84 155.37, 150.02 156.79, 147.14 158.08 C144.26 159.38, 141.29 160.56, 138.27 161.61 C135.25 162.66, 132.16 163.59, 129.03 164.38 C125.9 165.18, 122.71 165.85, 119.51 166.39 C116.3 166.92, 113.05 167.33, 109.8 167.6 C106.55 167.86, 103.27 168, 100 168 C96.73 168, 93.45 167.86, 90.2 167.6 C86.95 167.33, 83.7 166.92, 80.49 166.39 C77.29 165.85, 74.1 165.18, 70.97 164.38 C67.84 163.59, 64.75 162.66, 61.73 161.61 C58.71 160.56, 55.74 159.38, 52.86 158.08 C49.98 156.79, 47.16 155.37, 44.44 153.84 C41.73 152.32, 39.09 150.67, 36.56 148.93 C34.04 147.19, 31.6 145.34, 29.29 143.4 C26.98 141.46, 24.77 139.41, 22.7 137.29 C20.63 135.17, 18.67 132.95, 16.85 130.67 C15.04 128.39, 13.35 126.02, 11.81 123.6 C10.27 121.18, 8.86 118.68, 7.61 116.15 C6.36 113.61, 5.25 111.01, 4.31 108.38 C3.36 105.76, 2.56 103.08, 1.92 100.39 C1.28 97.7, 0.8 94.96, 0.48 92.23 C0.16 89.5, 0 86.74, 0 84 C0 81.26, 0.16 78.5, 0.48 75.77 C0.8 73.04, 1.28 70.3, 1.92 67.61 C2.56 64.92, 3.36 62.24, 4.31 59.62 C5.25 56.99, 6.36 54.39, 7.61 51.85 C8.86 49.32, 10.27 46.82, 11.81 44.4 C13.35 41.98, 15.04 39.61, 16.85 37.33 C18.67 35.05, 20.63 32.83, 22.7 30.71 C24.77 28.59, 26.98 26.54, 29.29 24.6 C31.6 22.66, 34.04 20.81, 36.56 19.07 C39.09 17.33, 41.73 15.68, 44.44 14.16 C47.16 12.63, 49.98 11.21, 52.86 9.92 C55.74 8.62, 58.71 7.44, 61.73 6.39 C64.75 5.34, 67.84 4.41, 70.97 3.62 C74.1 2.82, 77.29 2.15, 80.49 1.61 C83.7 1.08, 86.95 0.67, 90.2 0.4 C93.45 0.14, 96.73 0, 100 0 C103.27 0, 106.55 0.14, 109.8 0.4 C113.05 0.67, 116.3 1.08, 119.51 1.61 C122.71 2.15, 125.9 2.82, 129.03 3.62 C132.16 4.41, 135.25 5.34, 138.27 6.39 C141.29 7.44, 144.26 8.62, 147.14 9.92 C150.02 11.21, 152.84 12.63, 155.56 14.16 C158.27 15.68, 160.91 17.33, 163.44 19.07 C165.96 20.81, 168.4 22.66, 170.71 24.6 C173.02 26.54, 175.23 28.59, 177.3 30.71 C179.37 32.83, 181.33 35.05, 183.15 37.33 C184.96 39.61, 186.65 41.98, 188.19 44.4 C189.73 46.82, 191.14 49.32, 192.39 51.85 C193.64 54.39, 194.75 56.99, 195.69 59.62 C196.64 62.24, 197.44 64.92, 198.08 67.61 C198.72 70.3, 199.2 73.04, 199.52 75.77 C199.84 78.5, 199.92 82.63, 200 84 C200.08 85.37, 200.08 82.63, 200 84" stroke="#1e1e1e" stroke-width="4" fill="none"></path></g><g transform="translate(357.05494688134524 708.5030303803301) rotate(0 52.734375 21.599999999999994)"><text x="52.734375" y="34.762499999999996" font-family="Cascadia, Segoe UI Emoji" font-size="36px" fill="#1e1e1e" text-anchor="middle" style="white-space: pre;" direction="ltr" dominant-baseline="alphabetic">tau_w</text></g><g stroke-linecap="round"><g transform="translate(503.4767984967956 775.5764985444304) rotate(0 57.42403866807092 24.674289593727053)"><path d="M0 0 C45.01 19.34, 90.01 38.68, 114.85 49.35 M0 0 C42.07 18.08, 84.14 36.15, 114.85 49.35" stroke="#1e1e1e" stroke-width="4" fill="none"></path></g><g transform="translate(503.4767984967956 775.5764985444304) rotate(0 57.42403866807092 24.674289593727053)"><path d="M89.89 47.93 C99.67 48.49, 109.45 49.04, 114.85 49.35 M89.89 47.93 C99.03 48.45, 108.17 48.97, 114.85 49.35" stroke="#1e1e1e" stroke-width="4" fill="none"></path></g><g transform="translate(503.4767984967956 775.5764985444304) rotate(0 57.42403866807092 24.674289593727053)"><path d="M96.64 32.22 C103.78 38.93, 110.91 45.64, 114.85 49.35 M96.64 32.22 C103.31 38.49, 109.98 44.77, 114.85 49.35" stroke="#1e1e1e" stroke-width="4" fill="none"></path></g></g><mask></mask><g stroke-linecap="round" transform="translate(10 514) rotate(0 139 86)"><path d="M278 86 C278 88.5, 277.82 91.01, 277.47 93.5 C277.12 95.98, 276.59 98.47, 275.89 100.93 C275.19 103.39, 274.31 105.85, 273.26 108.26 C272.22 110.67, 271 113.07, 269.62 115.41 C268.24 117.76, 266.68 120.08, 264.98 122.35 C263.27 124.61, 261.4 126.84, 259.38 129 C257.36 131.16, 255.18 133.28, 252.86 135.33 C250.55 137.37, 248.08 139.37, 245.48 141.28 C242.88 143.19, 240.14 145.04, 237.29 146.81 C234.43 148.58, 231.44 150.27, 228.35 151.88 C225.25 153.49, 222.04 155.01, 218.73 156.45 C215.42 157.88, 212 159.23, 208.5 160.48 C205 161.73, 201.4 162.89, 197.74 163.94 C194.08 165, 190.34 165.96, 186.54 166.81 C182.75 167.67, 178.88 168.42, 174.98 169.07 C171.08 169.72, 167.11 170.26, 163.14 170.69 C159.16 171.13, 155.14 171.45, 151.11 171.67 C147.09 171.89, 143.04 172, 139 172 C134.96 172, 130.91 171.89, 126.89 171.67 C122.86 171.45, 118.84 171.13, 114.86 170.69 C110.89 170.26, 106.92 169.72, 103.02 169.07 C99.12 168.42, 95.25 167.67, 91.46 166.81 C87.66 165.96, 83.92 165, 80.26 163.94 C76.6 162.89, 73 161.73, 69.5 160.48 C66 159.23, 62.58 157.88, 59.27 156.45 C55.96 155.01, 52.75 153.49, 49.65 151.88 C46.56 150.27, 43.57 148.58, 40.71 146.81 C37.86 145.04, 35.12 143.19, 32.52 141.28 C29.92 139.37, 27.45 137.37, 25.14 135.33 C22.82 133.28, 20.64 131.16, 18.62 129 C16.6 126.84, 14.73 124.61, 13.02 122.35 C11.32 120.08, 9.76 117.76, 8.38 115.41 C7 113.07, 5.78 110.67, 4.74 108.26 C3.69 105.85, 2.81 103.39, 2.11 100.93 C1.41 98.47, 0.88 95.98, 0.53 93.5 C0.18 91.01, 0 88.5, 0 86 C0 83.5, 0.18 80.99, 0.53 78.5 C0.88 76.02, 1.41 73.53, 2.11 71.07 C2.81 68.61, 3.69 66.15, 4.74 63.74 C5.78 61.33, 7 58.93, 8.38 56.59 C9.76 54.24, 11.32 51.92, 13.02 49.65 C14.73 47.39, 16.6 45.16, 18.62 43 C20.64 40.84, 22.82 38.72, 25.14 36.67 C27.45 34.63, 29.92 32.63, 32.52 30.72 C35.12 28.81, 37.86 26.96, 40.71 25.19 C43.57 23.42, 46.56 21.73, 49.65 20.12 C52.75 18.51, 55.96 16.99, 59.27 15.55 C62.58 14.12, 66 12.77, 69.5 11.52 C73 10.27, 76.6 9.11, 80.26 8.06 C83.92 7, 87.66 6.04, 91.46 5.19 C95.25 4.33, 99.12 3.58, 103.02 2.93 C106.92 2.28, 110.89 1.74, 114.86 1.31 C118.84 0.87, 122.86 0.55, 126.89 0.33 C130.91 0.11, 134.96 0, 139 0 C143.04 0, 147.09 0.11, 151.11 0.33 C155.14 0.55, 159.16 0.87, 163.14 1.31 C167.11 1.74, 171.08 2.28, 174.98 2.93 C178.88 3.58, 182.75 4.33, 186.54 5.19 C190.34 6.04, 194.08 7, 197.74 8.06 C201.4 9.11, 205 10.27, 208.5 11.52 C212 12.77, 215.42 14.12, 218.73 15.55 C222.04 16.99, 225.25 18.51, 228.35 20.12 C231.44 21.73, 234.43 23.42, 237.29 25.19 C240.14 26.96, 242.88 28.81, 245.48 30.72 C248.08 32.63, 250.55 34.63, 252.86 36.67 C255.18 38.72, 257.36 40.84, 259.38 43 C261.4 45.16, 263.27 47.39, 264.98 49.65 C266.68 51.92, 268.24 54.24, 269.62 56.59 C271 58.93, 272.22 61.33, 273.26 63.74 C274.31 66.15, 275.19 68.61, 275.89 71.07 C276.59 73.53, 277.12 76.02, 277.47 78.5 C277.82 80.99, 277.91 84.75, 278 86 C278.09 87.25, 278.09 84.75, 278 86" stroke="#1e1e1e" stroke-width="4" fill="none"></path></g><g transform="translate(98 562) rotate(1.832819446607753 52.734375 21.599999999999998)"><text x="0" y="34.762499999999996" font-family="Cascadia, Segoe UI Emoji" font-size="36px" fill="#1e1e1e" text-anchor="start" style="white-space: pre;" direction="ltr" dominant-baseline="alphabetic">alpha</text></g><g stroke-linecap="round"><g transform="translate(263.816626400188 650.9300173880993) rotate(0 28.72813650882827 17.49719142275833)"><path d="M0 0 C20.21 12.31, 40.41 24.62, 57.46 34.99 M0 0 C18.61 11.33, 37.21 22.66, 57.46 34.99" stroke="#1e1e1e" stroke-width="4" fill="none"></path></g><g transform="translate(263.816626400188 650.9300173880993) rotate(0 28.72813650882827 17.49719142275833)"><path d="M32.94 30.08 C41.57 31.81, 50.19 33.54, 57.46 34.99 M32.94 30.08 C40.88 31.67, 48.82 33.26, 57.46 34.99" stroke="#1e1e1e" stroke-width="4" fill="none"></path></g><g transform="translate(263.816626400188 650.9300173880993) rotate(0 28.72813650882827 17.49719142275833)"><path d="M41.84 15.47 C47.33 22.34, 52.82 29.2, 57.46 34.99 M41.84 15.47 C46.9 21.79, 51.95 28.12, 57.46 34.99" stroke="#1e1e1e" stroke-width="4" fill="none"></path></g></g><mask></mask><g stroke-linecap="round" transform="translate(258 374) rotate(0 97 80)"><path d="M194 80 C194 82.61, 193.84 85.24, 193.53 87.84 C193.22 90.44, 192.75 93.04, 192.14 95.61 C191.52 98.17, 190.74 100.72, 189.82 103.22 C188.9 105.72, 187.83 108.2, 186.62 110.61 C185.4 113.03, 184.04 115.41, 182.55 117.71 C181.05 120.02, 179.41 122.27, 177.65 124.45 C175.89 126.62, 173.99 128.73, 171.98 130.75 C169.97 132.77, 167.83 134.72, 165.59 136.57 C163.35 138.42, 160.99 140.18, 158.54 141.84 C156.09 143.5, 153.53 145.07, 150.89 146.52 C148.26 147.97, 145.52 149.32, 142.73 150.55 C139.93 151.79, 137.05 152.91, 134.12 153.91 C131.19 154.91, 128.19 155.8, 125.16 156.56 C122.12 157.31, 119.03 157.95, 115.92 158.46 C112.82 158.97, 109.66 159.36, 106.51 159.61 C103.35 159.87, 100.17 160, 97 160 C93.83 160, 90.65 159.87, 87.49 159.61 C84.34 159.36, 81.18 158.97, 78.08 158.46 C74.97 157.95, 71.88 157.31, 68.84 156.56 C65.81 155.8, 62.81 154.91, 59.88 153.91 C56.95 152.91, 54.07 151.79, 51.27 150.55 C48.48 149.32, 45.74 147.97, 43.11 146.52 C40.47 145.07, 37.91 143.5, 35.46 141.84 C33.01 140.18, 30.65 138.42, 28.41 136.57 C26.17 134.72, 24.03 132.77, 22.02 130.75 C20.01 128.73, 18.11 126.62, 16.35 124.45 C14.59 122.27, 12.95 120.02, 11.45 117.71 C9.96 115.41, 8.6 113.03, 7.38 110.61 C6.17 108.2, 5.1 105.72, 4.18 103.22 C3.26 100.72, 2.48 98.17, 1.86 95.61 C1.25 93.04, 0.78 90.44, 0.47 87.84 C0.16 85.24, 0 82.61, 0 80 C0 77.39, 0.16 74.76, 0.47 72.16 C0.78 69.56, 1.25 66.96, 1.86 64.39 C2.48 61.83, 3.26 59.28, 4.18 56.78 C5.1 54.28, 6.17 51.8, 7.38 49.39 C8.6 46.97, 9.96 44.59, 11.45 42.29 C12.95 39.98, 14.59 37.73, 16.35 35.55 C18.11 33.38, 20.01 31.27, 22.02 29.25 C24.03 27.23, 26.17 25.28, 28.41 23.43 C30.65 21.58, 33.01 19.82, 35.46 18.16 C37.91 16.5, 40.47 14.93, 43.11 13.48 C45.74 12.03, 48.48 10.68, 51.27 9.45 C54.07 8.21, 56.95 7.09, 59.88 6.09 C62.81 5.09, 65.81 4.2, 68.84 3.44 C71.88 2.69, 74.97 2.05, 78.08 1.54 C81.18 1.03, 84.34 0.64, 87.49 0.39 C90.65 0.13, 93.83 0, 97 0 C100.17 0, 103.35 0.13, 106.51 0.39 C109.66 0.64, 112.82 1.03, 115.92 1.54 C119.03 2.05, 122.12 2.69, 125.16 3.44 C128.19 4.2, 131.19 5.09, 134.12 6.09 C137.05 7.09, 139.93 8.21, 142.73 9.45 C145.52 10.68, 148.26 12.03, 150.89 13.48 C153.53 14.93, 156.09 16.5, 158.54 18.16 C160.99 19.82, 163.35 21.58, 165.59 23.43 C167.83 25.28, 169.97 27.23, 171.98 29.25 C173.99 31.27, 175.89 33.38, 177.65 35.55 C179.41 37.73, 181.05 39.98, 182.55 42.29 C184.04 44.59, 185.4 46.97, 186.62 49.39 C187.83 51.8, 188.9 54.28, 189.82 56.78 C190.74 59.28, 191.52 61.83, 192.14 64.39 C192.75 66.96, 193.22 69.56, 193.53 72.16 C193.84 74.76, 193.92 78.69, 194 80 C194.08 81.31, 194.08 78.69, 194 80" stroke="#1e1e1e" stroke-width="4" fill="none"></path></g><g transform="translate(308 436) rotate(0 42.1875 21.599999999999994)"><text x="0" y="34.762499999999996" font-family="Cascadia, Segoe UI Emoji" font-size="36px" fill="#1e1e1e" text-anchor="start" style="white-space: pre;" direction="ltr" dominant-baseline="alphabetic">beta</text></g><g stroke-linecap="round" transform="translate(895.9999999999999 88) rotate(0 78 70)"><path d="M156 70 C156 72.61, 155.84 75.24, 155.51 77.84 C155.18 80.43, 154.69 83.03, 154.04 85.58 C153.4 88.12, 152.58 90.65, 151.62 93.12 C150.66 95.59, 149.54 98.02, 148.28 100.37 C147.01 102.73, 145.59 105.03, 144.04 107.24 C142.5 109.45, 140.8 111.6, 138.98 113.64 C137.17 115.69, 135.21 117.65, 133.15 119.5 C131.1 121.34, 128.91 123.1, 126.63 124.73 C124.36 126.36, 121.96 127.88, 119.5 129.27 C117.03 130.66, 114.47 131.93, 111.84 133.07 C109.22 134.2, 106.51 135.21, 103.76 136.07 C101.01 136.93, 98.19 137.66, 95.36 138.24 C92.52 138.83, 89.63 139.27, 86.73 139.56 C83.84 139.85, 80.91 140, 78 140 C75.09 140, 72.16 139.85, 69.27 139.56 C66.37 139.27, 63.48 138.83, 60.64 138.24 C57.81 137.66, 54.99 136.93, 52.24 136.07 C49.49 135.21, 46.78 134.2, 44.16 133.07 C41.53 131.93, 38.97 130.66, 36.5 129.27 C34.04 127.88, 31.64 126.36, 29.37 124.73 C27.09 123.1, 24.9 121.34, 22.85 119.5 C20.79 117.65, 18.83 115.69, 17.02 113.64 C15.2 111.6, 13.5 109.45, 11.96 107.24 C10.41 105.03, 8.99 102.73, 7.72 100.37 C6.46 98.02, 5.34 95.59, 4.38 93.12 C3.42 90.65, 2.6 88.12, 1.96 85.58 C1.31 83.03, 0.82 80.43, 0.49 77.84 C0.16 75.24, 0 72.61, 0 70 C0 67.39, 0.16 64.76, 0.49 62.16 C0.82 59.57, 1.31 56.97, 1.96 54.42 C2.6 51.88, 3.42 49.35, 4.38 46.88 C5.34 44.41, 6.46 41.98, 7.72 39.63 C8.99 37.27, 10.41 34.97, 11.96 32.76 C13.5 30.55, 15.2 28.4, 17.02 26.36 C18.83 24.31, 20.79 22.35, 22.85 20.5 C24.9 18.66, 27.09 16.9, 29.37 15.27 C31.64 13.64, 34.04 12.12, 36.5 10.73 C38.97 9.34, 41.53 8.07, 44.16 6.93 C46.78 5.8, 49.49 4.79, 52.24 3.93 C54.99 3.07, 57.81 2.34, 60.64 1.76 C63.48 1.17, 66.37 0.73, 69.27 0.44 C72.16 0.15, 75.09 0, 78 0 C80.91 0, 83.84 0.15, 86.73 0.44 C89.63 0.73, 92.52 1.17, 95.36 1.76 C98.19 2.34, 101.01 3.07, 103.76 3.93 C106.51 4.79, 109.22 5.8, 111.84 6.93 C114.47 8.07, 117.03 9.34, 119.5 10.73 C121.96 12.12, 124.36 13.64, 126.63 15.27 C128.91 16.9, 131.1 18.66, 133.15 20.5 C135.21 22.35, 137.17 24.31, 138.98 26.36 C140.8 28.4, 142.5 30.55, 144.04 32.76 C145.59 34.97, 147.01 37.27, 148.28 39.63 C149.54 41.98, 150.66 44.41, 151.62 46.88 C152.58 49.35, 153.4 51.88, 154.04 54.42 C154.69 56.97, 155.18 59.57, 155.51 62.16 C155.84 64.76, 155.92 68.69, 156 70 C156.08 71.31, 156.08 68.69, 156 70" stroke="#1e1e1e" stroke-width="4" fill="none"></path></g><g transform="translate(963.2987960674492 136.4025253169417) rotate(0 10.546875 21.599999999999994)"><text x="10.546875" y="34.762499999999996" font-family="Cascadia, Segoe UI Emoji" font-size="36px" fill="#1e1e1e" text-anchor="middle" style="white-space: pre;" direction="ltr" dominant-baseline="alphabetic">a</text></g><g stroke-linecap="round"><g transform="translate(959.4423571727697 232.5908162405492) rotate(0 -6.991532540939943 21.093597445705456)"><path d="M0 0 C-5.21 15.72, -10.42 31.45, -13.98 42.19 M0 0 C-4.9 14.79, -9.8 29.57, -13.98 42.19" stroke="#1e1e1e" stroke-width="4" fill="none"></path></g><g transform="translate(959.4423571727697 232.5908162405492) rotate(0 -6.991532540939943 21.093597445705456)"><path d="M-14.63 19.97 C-14.39 28.25, -14.15 36.53, -13.98 42.19 M-14.63 19.97 C-14.4 27.76, -14.18 35.55, -13.98 42.19" stroke="#1e1e1e" stroke-width="4" fill="none"></path></g><g transform="translate(959.4423571727697 232.5908162405492) rotate(0 -6.991532540939943 21.093597445705456)"><path d="M-0.2 24.76 C-5.34 31.25, -10.47 37.75, -13.98 42.19 M-0.2 24.76 C-5.03 30.87, -9.86 36.98, -13.98 42.19" stroke="#1e1e1e" stroke-width="4" fill="none"></path></g></g><mask></mask><g stroke-linecap="round" transform="translate(1046 188) rotate(0 81 75)"><path d="M162 75 C162 77.61, 161.85 80.24, 161.56 82.84 C161.26 85.44, 160.82 88.04, 160.23 90.59 C159.64 93.15, 158.91 95.69, 158.04 98.18 C157.16 100.66, 156.15 103.12, 155 105.51 C153.85 107.89, 152.56 110.24, 151.15 112.5 C149.74 114.76, 148.19 116.97, 146.53 119.08 C144.87 121.2, 143.08 123.24, 141.19 125.18 C139.31 127.13, 137.3 128.99, 135.2 130.74 C133.1 132.48, 130.89 134.14, 128.61 135.68 C126.33 137.21, 123.94 138.65, 121.5 139.95 C119.06 141.26, 116.52 142.45, 113.95 143.52 C111.37 144.58, 108.71 145.52, 106.03 146.33 C103.35 147.14, 100.6 147.82, 97.84 148.36 C95.08 148.9, 92.27 149.32, 89.47 149.59 C86.66 149.86, 83.82 150, 81 150 C78.18 150, 75.34 149.86, 72.53 149.59 C69.73 149.32, 66.92 148.9, 64.16 148.36 C61.4 147.82, 58.65 147.14, 55.97 146.33 C53.29 145.52, 50.63 144.58, 48.05 143.52 C45.48 142.45, 42.94 141.26, 40.5 139.95 C38.06 138.65, 35.67 137.21, 33.39 135.68 C31.11 134.14, 28.9 132.48, 26.8 130.74 C24.7 128.99, 22.69 127.13, 20.81 125.18 C18.92 123.24, 17.13 121.2, 15.47 119.08 C13.81 116.97, 12.26 114.76, 10.85 112.5 C9.44 110.24, 8.15 107.89, 7 105.51 C5.85 103.12, 4.84 100.66, 3.96 98.18 C3.09 95.69, 2.36 93.15, 1.77 90.59 C1.18 88.04, 0.74 85.44, 0.44 82.84 C0.15 80.24, 0 77.61, 0 75 C0 72.39, 0.15 69.76, 0.44 67.16 C0.74 64.56, 1.18 61.96, 1.77 59.41 C2.36 56.85, 3.09 54.31, 3.96 51.82 C4.84 49.34, 5.85 46.88, 7 44.49 C8.15 42.11, 9.44 39.76, 10.85 37.5 C12.26 35.24, 13.81 33.03, 15.47 30.92 C17.13 28.8, 18.92 26.76, 20.81 24.82 C22.69 22.87, 24.7 21.01, 26.8 19.26 C28.9 17.52, 31.11 15.86, 33.39 14.32 C35.67 12.79, 38.06 11.35, 40.5 10.05 C42.94 8.74, 45.48 7.55, 48.05 6.48 C50.63 5.42, 53.29 4.48, 55.97 3.67 C58.65 2.86, 61.4 2.18, 64.16 1.64 C66.92 1.1, 69.73 0.68, 72.53 0.41 C75.34 0.14, 78.18 0, 81 0 C83.82 0, 86.66 0.14, 89.47 0.41 C92.27 0.68, 95.08 1.1, 97.84 1.64 C100.6 2.18, 103.35 2.86, 106.03 3.67 C108.71 4.48, 111.37 5.42, 113.95 6.48 C116.52 7.55, 119.06 8.74, 121.5 10.05 C123.94 11.35, 126.33 12.79, 128.61 14.32 C130.89 15.86, 133.1 17.52, 135.2 19.26 C137.3 21.01, 139.31 22.87, 141.19 24.82 C143.08 26.76, 144.87 28.8, 146.53 30.92 C148.19 33.03, 149.74 35.24, 151.15 37.5 C152.56 39.76, 153.85 42.11, 155 44.49 C156.15 46.88, 157.16 49.34, 158.04 51.82 C158.91 54.31, 159.64 56.85, 160.23 59.41 C160.82 61.96, 161.26 64.56, 161.56 67.16 C161.85 69.76, 161.93 73.69, 162 75 C162.07 76.31, 162.07 73.69, 162 75" stroke="#1e1e1e" stroke-width="4" fill="none"></path></g><g transform="translate(1110 234) rotate(0 10.546875 21.599999999999994)"><text x="0" y="34.762499999999996" font-family="Cascadia, Segoe UI Emoji" font-size="36px" fill="#1e1e1e" text-anchor="start" style="white-space: pre;" direction="ltr" dominant-baseline="alphabetic">b</text></g><g stroke-linecap="round"><g transform="translate(1052.4669959182197 299.3373144227975) rotate(0 -26.35136720665173 8.2073501232573)"><path d="M0 0 C-17.28 5.38, -34.57 10.77, -52.7 16.41 M0 0 C-21 6.54, -42.01 13.08, -52.7 16.41" stroke="#1e1e1e" stroke-width="4" fill="none"></path></g><g transform="translate(1052.4669959182197 299.3373144227975) rotate(0 -26.35136720665173 8.2073501232573)"><path d="M-32.82 1.27 C-39.34 6.23, -45.86 11.2, -52.7 16.41 M-32.82 1.27 C-40.74 7.3, -48.67 13.34, -52.7 16.41" stroke="#1e1e1e" stroke-width="4" fill="none"></path></g><g transform="translate(1052.4669959182197 299.3373144227975) rotate(0 -26.35136720665173 8.2073501232573)"><path d="M-27.73 17.59 C-35.92 17.21, -44.11 16.82, -52.7 16.41 M-27.73 17.59 C-37.68 17.12, -47.64 16.65, -52.7 16.41" stroke="#1e1e1e" stroke-width="4" fill="none"></path></g></g><mask></mask><g stroke-linecap="round" transform="translate(478 36) rotate(0 74 57)"><path d="M148 57 C148 59.29, 147.82 61.6, 147.46 63.87 C147.1 66.14, 146.56 68.42, 145.85 70.64 C145.14 72.86, 144.25 75.07, 143.19 77.21 C142.14 79.35, 140.91 81.46, 139.52 83.49 C138.14 85.52, 136.59 87.49, 134.9 89.38 C133.21 91.26, 131.36 93.08, 129.39 94.8 C127.42 96.51, 125.3 98.15, 123.07 99.67 C120.85 101.18, 118.48 102.61, 116.04 103.91 C113.59 105.21, 111.02 106.41, 108.39 107.47 C105.76 108.54, 103.02 109.48, 100.24 110.3 C97.46 111.11, 94.6 111.8, 91.71 112.34 C88.82 112.89, 85.87 113.31, 82.92 113.58 C79.97 113.86, 76.97 114, 74 114 C71.03 114, 68.03 113.86, 65.08 113.58 C62.13 113.31, 59.18 112.89, 56.29 112.34 C53.4 111.8, 50.54 111.11, 47.76 110.3 C44.98 109.48, 42.24 108.54, 39.61 107.47 C36.98 106.41, 34.41 105.21, 31.96 103.91 C29.52 102.61, 27.15 101.18, 24.93 99.67 C22.7 98.15, 20.58 96.51, 18.61 94.8 C16.64 93.08, 14.79 91.26, 13.1 89.38 C11.41 87.49, 9.86 85.52, 8.48 83.49 C7.09 81.46, 5.86 79.35, 4.81 77.21 C3.75 75.07, 2.86 72.86, 2.15 70.64 C1.44 68.42, 0.9 66.14, 0.54 63.87 C0.18 61.6, 0 59.29, 0 57 C0 54.71, 0.18 52.4, 0.54 50.13 C0.9 47.86, 1.44 45.58, 2.15 43.36 C2.86 41.14, 3.75 38.93, 4.81 36.79 C5.86 34.65, 7.09 32.54, 8.48 30.51 C9.86 28.48, 11.41 26.51, 13.1 24.62 C14.79 22.74, 16.64 20.92, 18.61 19.2 C20.58 17.49, 22.7 15.85, 24.93 14.33 C27.15 12.82, 29.52 11.39, 31.96 10.09 C34.41 8.79, 36.98 7.59, 39.61 6.53 C42.24 5.46, 44.98 4.52, 47.76 3.7 C50.54 2.89, 53.4 2.2, 56.29 1.66 C59.18 1.11, 62.13 0.69, 65.08 0.42 C68.03 0.14, 71.03 0, 74 0 C76.97 0, 79.97 0.14, 82.92 0.42 C85.87 0.69, 88.82 1.11, 91.71 1.66 C94.6 2.2, 97.46 2.89, 100.24 3.7 C103.02 4.52, 105.76 5.46, 108.39 6.53 C111.02 7.59, 113.59 8.79, 116.04 10.09 C118.48 11.39, 120.85 12.82, 123.07 14.33 C125.3 15.85, 127.42 17.49, 129.39 19.2 C131.36 20.92, 133.21 22.74, 134.9 24.62 C136.59 26.51, 138.14 28.48, 139.52 30.51 C140.91 32.54, 142.14 34.65, 143.19 36.79 C144.25 38.93, 145.14 41.14, 145.85 43.36 C146.56 45.58, 147.1 47.86, 147.46 50.13 C147.82 52.4, 148 54.71, 148 57" stroke="#1e1e1e" stroke-width="4" fill="none"></path></g><g transform="translate(510 66) rotate(0 42.1875 21.599999999999994)"><text x="0" y="34.762499999999996" font-family="Cascadia, Segoe UI Emoji" font-size="36px" fill="#1e1e1e" text-anchor="start" style="white-space: pre;" direction="ltr" dominant-baseline="alphabetic">mu_0</text></g><g stroke-linecap="round"><g transform="translate(592 146) rotate(0 36 46)"><path d="M0 0 C19.54 24.97, 39.08 49.93, 72 92 M0 0 C21.29 27.2, 42.57 54.4, 72 92" stroke="#1e1e1e" stroke-width="4" fill="none"></path></g><g transform="translate(592 146) rotate(0 36 46)"><path d="M50.79 78.77 C56.54 82.36, 62.3 85.95, 72 92 M50.79 78.77 C57.06 82.68, 63.33 86.59, 72 92" stroke="#1e1e1e" stroke-width="4" fill="none"></path></g><g transform="translate(592 146) rotate(0 36 46)"><path d="M64.26 68.23 C66.36 74.68, 68.46 81.13, 72 92 M64.26 68.23 C66.54 75.26, 68.83 82.28, 72 92" stroke="#1e1e1e" stroke-width="4" fill="none"></path></g></g><mask></mask><g stroke-linecap="round" transform="translate(656 10) rotate(0 71 54)"><path d="M142 54 C142 56.17, 141.83 58.36, 141.48 60.51 C141.14 62.66, 140.62 64.82, 139.94 66.92 C139.25 69.03, 138.4 71.12, 137.39 73.15 C136.37 75.18, 135.19 77.17, 133.87 79.1 C132.54 81.02, 131.05 82.89, 129.43 84.68 C127.81 86.46, 126.04 88.18, 124.14 89.81 C122.25 91.43, 120.22 92.98, 118.08 94.42 C115.95 95.86, 113.68 97.21, 111.33 98.44 C108.98 99.67, 106.52 100.81, 104 101.81 C101.47 102.82, 98.84 103.72, 96.18 104.49 C93.51 105.26, 90.76 105.91, 87.99 106.43 C85.22 106.95, 82.39 107.34, 79.56 107.61 C76.73 107.87, 73.85 108, 71 108 C68.15 108, 65.27 107.87, 62.44 107.61 C59.61 107.34, 56.78 106.95, 54.01 106.43 C51.24 105.91, 48.49 105.26, 45.82 104.49 C43.16 103.72, 40.53 102.82, 38 101.81 C35.48 100.81, 33.02 99.67, 30.67 98.44 C28.32 97.21, 26.05 95.86, 23.92 94.42 C21.78 92.98, 19.75 91.43, 17.86 89.81 C15.96 88.18, 14.19 86.46, 12.57 84.68 C10.95 82.89, 9.46 81.02, 8.13 79.1 C6.81 77.17, 5.63 75.18, 4.61 73.15 C3.6 71.12, 2.75 69.03, 2.06 66.92 C1.38 64.82, 0.86 62.66, 0.52 60.51 C0.17 58.36, 0 56.17, 0 54 C0 51.83, 0.17 49.64, 0.52 47.49 C0.86 45.34, 1.38 43.18, 2.06 41.08 C2.75 38.97, 3.6 36.88, 4.61 34.85 C5.63 32.82, 6.81 30.83, 8.13 28.9 C9.46 26.98, 10.95 25.11, 12.57 23.32 C14.19 21.54, 15.96 19.82, 17.86 18.19 C19.75 16.57, 21.78 15.02, 23.92 13.58 C26.05 12.14, 28.32 10.79, 30.67 9.56 C33.02 8.33, 35.48 7.19, 38 6.19 C40.53 5.18, 43.16 4.28, 45.82 3.51 C48.49 2.74, 51.24 2.09, 54.01 1.57 C56.78 1.05, 59.61 0.66, 62.44 0.39 C65.27 0.13, 68.15 0, 71 0 C73.85 0, 76.73 0.13, 79.56 0.39 C82.39 0.66, 85.22 1.05, 87.99 1.57 C90.76 2.09, 93.51 2.74, 96.18 3.51 C98.84 4.28, 101.47 5.18, 104 6.19 C106.52 7.19, 108.98 8.33, 111.33 9.56 C113.68 10.79, 115.95 12.14, 118.08 13.58 C120.22 15.02, 122.25 16.57, 124.14 18.19 C126.04 19.82, 127.81 21.54, 129.43 23.32 C131.05 25.11, 132.54 26.98, 133.87 28.9 C135.19 30.83, 136.37 32.82, 137.39 34.85 C138.4 36.88, 139.25 38.97, 139.94 41.08 C140.62 43.18, 141.14 45.34, 141.48 47.49 C141.83 49.64, 142 51.83, 142 54" stroke="#1e1e1e" stroke-width="4" fill="none"></path></g><g transform="translate(676 42) rotate(0 52.734375 21.600000000000023)"><text x="0" y="34.762499999999996" font-family="Cascadia, Segoe UI Emoji" font-size="36px" fill="#1e1e1e" text-anchor="start" style="white-space: pre;" direction="ltr" dominant-baseline="alphabetic">tau_0</text></g><g stroke-linecap="round"><g transform="translate(718.5091765529909 123.11309828308242) rotate(0 0.4816781370905119 44.72141892928738)"><path d="M0 0 C0.27 24.89, 0.54 49.78, 0.96 89.44 M0 0 C0.2 18.7, 0.4 37.41, 0.96 89.44" stroke="#1e1e1e" stroke-width="4" fill="none"></path></g><g transform="translate(718.5091765529909 123.11309828308242) rotate(0 0.4816781370905119 44.72141892928738)"><path d="M-7.84 66.04 C-5.39 72.56, -2.94 79.07, 0.96 89.44 M-7.84 66.04 C-6 70.94, -4.16 75.83, 0.96 89.44" stroke="#1e1e1e" stroke-width="4" fill="none"></path></g><g transform="translate(718.5091765529909 123.11309828308242) rotate(0 0.4816781370905119 44.72141892928738)"><path d="M9.26 65.86 C6.95 72.42, 4.64 78.99, 0.96 89.44 M9.26 65.86 C7.53 70.79, 5.79 75.72, 0.96 89.44" stroke="#1e1e1e" stroke-width="4" fill="none"></path></g></g><mask></mask><g stroke-linecap="round"><g transform="translate(369.9606370488922 537.0775067190157) rotate(0 7.9870986149906 55.18528035542132)"><path d="M0 0 C6.35 43.86, 12.7 87.73, 15.97 110.37 M0 0 C5.95 41.14, 11.91 82.27, 15.97 110.37" stroke="#1e1e1e" stroke-width="4" fill="none"></path></g><g transform="translate(369.9606370488922 537.0775067190157) rotate(0 7.9870986149906 55.18528035542132)"><path d="M4.15 88.35 C8.85 97.1, 13.55 105.85, 15.97 110.37 M4.15 88.35 C8.56 96.55, 12.96 104.76, 15.97 110.37" stroke="#1e1e1e" stroke-width="4" fill="none"></path></g><g transform="translate(369.9606370488922 537.0775067190157) rotate(0 7.9870986149906 55.18528035542132)"><path d="M21.07 85.9 C19.05 95.62, 17.02 105.35, 15.97 110.37 M21.07 85.9 C19.17 95.02, 17.27 104.14, 15.97 110.37" stroke="#1e1e1e" stroke-width="4" fill="none"></path></g></g><mask></mask></svg>